<?xml version="1.0" encoding="utf-8"?>
<!-- Generator: Adobe Illustrator 16.0.0, SVG Export Plug-In . SVG Version: 6.00 Build 0)  -->
<!DOCTYPE svg PUBLIC "-//W3C//DTD SVG 1.1//EN" "http://www.w3.org/Graphics/SVG/1.1/DTD/svg11.dtd">
<svg version="1.1" id="Layer_1" xmlns="http://www.w3.org/2000/svg" xmlns:xlink="http://www.w3.org/1999/xlink" x="0px" y="0px"
	 width="260px" height="30px" viewBox="0 0 260 30" enable-background="new 0 0 260 30" xml:space="preserve">
<g>
	<g>
		<g>
			<path fill="#FFFFFF" d="M101.597,0.824v1.111c0,2.534-0.918,4.386-2.754,5.554c-1.34,0.857-3.116,1.32-5.326,1.39V6.587
				c1.935-0.081,3.392-0.491,4.37-1.233c0.835-0.648,1.253-1.469,1.253-2.464h-5.409V0.824H101.597z M94.292,10.337h2.325v3.071
				h10.076v2.17H95.43c-0.385,0-0.666-0.087-0.841-0.26c-0.198-0.209-0.297-0.556-0.297-1.042V10.337z M104.251,4.174v-3.35h2.326
				v10.155h-2.326V6.344h-4.32v-2.17H104.251z"/>
			<path fill="#FFFFFF" d="M118.466,0.824v1.163c0,2.28-0.919,3.981-2.754,5.104c-1.385,0.856-3.155,1.319-5.309,1.388V6.24
				c1.902-0.058,3.357-0.446,4.369-1.164c0.835-0.602,1.253-1.319,1.253-2.152h-5.408v-2.1H118.466z M121.466,8.566
				c0.989,0.88,1.484,1.984,1.484,3.315c0,1.319-0.495,2.419-1.484,3.298c-0.923,0.833-2,1.25-3.231,1.25s-2.303-0.418-3.215-1.25
				c-0.967-0.879-1.45-1.979-1.45-3.298c0-1.331,0.483-2.436,1.45-3.315c0.913-0.821,1.984-1.233,3.215-1.233
				S120.543,7.745,121.466,8.566z M116.652,10.214c-0.483,0.452-0.726,1.007-0.726,1.667c0,0.648,0.242,1.203,0.726,1.666
				c0.461,0.44,1,0.659,1.616,0.659c0.615,0,1.154-0.219,1.615-0.659c0.473-0.451,0.709-1.006,0.709-1.666
				c0-0.671-0.237-1.227-0.709-1.667c-0.451-0.428-0.989-0.642-1.615-0.642C117.652,9.573,117.113,9.786,116.652,10.214z
				 M123.461,5.476v2.413h-2.325V0.824h2.325v2.483h1.879v2.169H123.461z"/>
			<path fill="#FFFFFF" d="M135.366,0.824v1.684c0,3.703-0.945,6.417-2.837,8.141c-1.353,1.227-3.099,1.893-5.243,1.997v-2.378
				c1.946-0.069,3.403-0.769,4.371-2.1c0.899-1.227,1.352-2.952,1.352-5.174h-5.507v-2.17H135.366z M138.021,0.824h2.324v14.98
				h-2.324V0.824z"/>
			<path fill="#FFFFFF" d="M157.711,6.778v2.169h-14.018V6.778H157.711z M149.467,5.65h-4.173c-0.385,0-0.665-0.087-0.84-0.26
				c-0.188-0.208-0.282-0.556-0.282-1.042V0.824h2.326v2.708h10.734V5.65h-5.325H149.467z M154.018,8.461
				c1.101,0.88,1.649,1.974,1.649,3.281c0,1.388-0.522,2.54-1.565,3.454c-0.979,0.869-2.111,1.302-3.397,1.302
				c-1.329,0-2.483-0.434-3.464-1.302c-1.043-0.914-1.565-2.065-1.565-3.454c0-1.308,0.55-2.401,1.648-3.281
				c1.012-0.81,2.139-1.215,3.381-1.215C151.925,7.246,153.027,7.652,154.018,8.461z M148.839,9.851
				c-0.517,0.509-0.774,1.134-0.774,1.874c0,0.73,0.259,1.343,0.774,1.84c0.507,0.499,1.11,0.747,1.815,0.747
				c0.681,0,1.273-0.248,1.781-0.747c0.525-0.497,0.791-1.11,0.791-1.84c0-0.74-0.266-1.365-0.791-1.874
				c-0.508-0.487-1.102-0.73-1.781-0.73C149.961,9.121,149.355,9.364,148.839,9.851z"/>
			<path fill="#FFFFFF" d="M166.419,0.824c-0.012,1.585,0.22,2.778,0.692,3.577c0.527,0.891,1.429,1.435,2.703,1.631V8.34
				c-0.979-0.046-1.885-0.324-2.722-0.833c-0.847-0.521-1.467-1.18-1.862-1.979c-0.418,0.787-1.084,1.446-1.996,1.979
				c-0.867,0.509-1.741,0.787-2.621,0.833V6.049c1.275-0.208,2.172-0.758,2.688-1.649c0.439-0.776,0.664-1.968,0.677-3.577h2.44
				V0.824z M174.119,15.648h-2.324v-4.167h-9.961V9.312h12.285V15.648z M171.795,0.824h2.324v7.551h-2.324V0.824z"/>
			<path fill="#FFFFFF" d="M183.32,10.163V9.034h-5.854v-2.1h14.018v2.1h-5.854v1.128L183.32,10.163L183.32,10.163z M189.177,4.087
				h1.88v1.962h-13.16V4.087h1.83v-1.18h-1.83V0.824h13.16v2.083h-1.88V4.087z M177.945,10.023h13.061v4.253
				c0,0.486-0.104,0.833-0.313,1.042c-0.178,0.173-0.452,0.26-0.825,0.26h-10.802c-0.385,0-0.666-0.087-0.84-0.26
				c-0.188-0.209-0.281-0.556-0.281-1.042V10.023z M188.715,12.038h-8.477v1.527h8.477V12.038z M182.02,2.907v1.18h4.896v-1.18
				H182.02z"/>
			<path fill="#FFFFFF" d="M194.832,0.824h8.277V11.1c0,0.498-0.1,0.846-0.297,1.041c-0.164,0.174-0.439,0.261-0.824,0.261h-6.053
				c-0.373,0-0.647-0.087-0.824-0.261c-0.188-0.208-0.279-0.555-0.279-1.041V0.824z M200.834,2.924h-3.727v7.377h3.727V2.924z
				 M205.568,0.824h2.322v14.98h-2.322V0.824z"/>
			<path fill="#FFFFFF" d="M216.088,2.993h-4.37V0.824h6.712v6.614h-4.386v2.795h5.558v2.17h-6.777
				c-0.374,0-0.649-0.087-0.824-0.261c-0.188-0.208-0.281-0.555-0.281-1.041V5.354h4.37L216.088,2.993L216.088,2.993z
				 M222.553,7.611h-0.957v8.038h-2.177V0.824h2.177v4.583h0.957V0.824h2.227v14.824h-2.227V7.611z"/>
			<path fill="#FFFFFF" d="M236.289,8.444v4.253h5.854v2.168h-14.017v-2.168h5.854V8.444H236.289z M239.555,6.535h1.83v2.17h-12.531
				v-2.17h1.896V2.993h-1.896V0.824h12.531v2.169h-1.83V6.535z M233.023,2.993v3.542h4.254V2.993H233.023z"/>
			<path fill="#FFFFFF" d="M251.378,2.993h-5.888V0.824h8.229v4.757h-5.902v0.711h7.256V8.34h-8.477
				c-0.373,0-0.648-0.092-0.824-0.277c-0.188-0.197-0.28-0.538-0.28-1.024V3.706h5.888L251.378,2.993L251.378,2.993z M246.266,9.382
				h12.285v4.895c0,0.486-0.099,0.827-0.297,1.023c-0.176,0.174-0.449,0.261-0.824,0.261h-10.043c-0.385,0-0.664-0.086-0.842-0.261
				c-0.186-0.197-0.279-0.537-0.279-1.023V9.382L246.266,9.382z M256.227,11.447h-7.636v2.049h7.636V11.447z M256.227,2.595V0.824
				h2.324v7.725h-2.324V4.747h-2.854V2.595H256.227z"/>
		</g>
	</g>
	<g>
		<g>
			<path fill="#FFFFFF" d="M94.277,20.684h1.127v2.914h3.06v-2.914h1.126v7.149h-1.126v-3.254h-3.06v3.254h-1.127V20.684z"/>
			<path fill="#FFFFFF" d="M101.182,25.172c0-1.74,1.185-2.818,2.438-2.818c1.418,0,2.176,1.021,2.176,2.535
				c0,0.215-0.019,0.438-0.048,0.563h-3.469c0.088,1.021,0.729,1.633,1.652,1.633c0.476,0,0.884-0.146,1.272-0.397l0.389,0.709
				c-0.496,0.33-1.107,0.563-1.807,0.563C102.337,27.959,101.182,26.93,101.182,25.172z M104.834,24.686
				c0-0.922-0.418-1.457-1.194-1.457c-0.671,0-1.263,0.516-1.37,1.457H104.834z"/>
			<path fill="#FFFFFF" d="M106.785,26.415c0-1.146,0.972-1.74,3.196-1.981c-0.01-0.621-0.234-1.166-1.02-1.166
				c-0.563,0-1.088,0.254-1.545,0.545l-0.417-0.758c0.553-0.351,1.302-0.701,2.156-0.701c1.331,0,1.943,0.847,1.943,2.265v3.216
				h-0.914l-0.097-0.611h-0.029c-0.486,0.418-1.059,0.737-1.7,0.737C107.436,27.959,106.785,27.357,106.785,26.415z M109.981,26.454
				v-1.312c-1.583,0.193-2.118,0.592-2.118,1.193c0,0.525,0.359,0.738,0.835,0.738C109.165,27.075,109.544,26.854,109.981,26.454z"
				/>
			<path fill="#FFFFFF" d="M112.873,26.58v-6.489h1.107v6.548c0,0.301,0.136,0.407,0.272,0.407c0.049,0,0.087,0,0.185-0.021
				l0.146,0.847c-0.136,0.049-0.33,0.087-0.602,0.087C113.174,27.959,112.873,27.443,112.873,26.58z"/>
			<path fill="#FFFFFF" d="M116.136,26.085v-2.701h-0.777v-0.835l0.826-0.059l0.126-1.477h0.941v1.477h1.389v0.894h-1.389v2.712
				c0,0.639,0.224,0.971,0.778,0.971c0.184,0,0.417-0.06,0.572-0.127l0.204,0.826c-0.301,0.098-0.66,0.193-1.049,0.193
				C116.554,27.959,116.136,27.211,116.136,26.085z"/>
			<path fill="#FFFFFF" d="M120,20.091h1.107v2.05l-0.039,1.06c0.466-0.446,1.001-0.847,1.729-0.847
				c1.137,0,1.642,0.758,1.642,2.119v3.36h-1.117v-3.226c0-0.924-0.272-1.291-0.904-1.291c-0.495,0-0.835,0.252-1.311,0.729v3.788
				H120V20.091z"/>
			<path fill="#FFFFFF" d="M128.194,26.91l0.661-0.777c0.515,0.516,1.214,0.846,1.903,0.846c0.866,0,1.352-0.408,1.352-1.012
				c0-0.648-0.485-0.854-1.146-1.146l-0.991-0.428c-0.69-0.291-1.457-0.834-1.457-1.875c0-1.125,0.99-1.972,2.351-1.972
				c0.835,0,1.622,0.351,2.167,0.904l-0.594,0.718c-0.446-0.396-0.941-0.641-1.573-0.641c-0.728,0-1.205,0.35-1.205,0.923
				c0,0.612,0.572,0.845,1.155,1.079l0.981,0.416c0.847,0.359,1.458,0.886,1.458,1.934c0,1.146-0.953,2.079-2.517,2.079
				C129.758,27.959,128.845,27.57,128.194,26.91z"/>
			<path fill="#FFFFFF" d="M134.633,25.852V22.49h1.116v3.225c0,0.924,0.265,1.282,0.894,1.282c0.496,0,0.836-0.233,1.282-0.796
				V22.49h1.118v5.343h-0.913l-0.087-0.808h-0.029c-0.486,0.563-1.011,0.934-1.75,0.934
				C135.128,27.959,134.633,27.211,134.633,25.852z"/>
			<path fill="#FFFFFF" d="M140.916,22.49h0.913l0.088,0.582h0.026c0.468-0.389,1.05-0.719,1.644-0.719
				c1.358,0,2.118,1.078,2.118,2.719c0,1.838-1.1,2.887-2.303,2.887c-0.477,0-0.952-0.214-1.408-0.602l0.027,0.912V30h-1.105V22.49
				L140.916,22.49z M144.549,25.094c0-1.117-0.359-1.808-1.254-1.808c-0.417,0-0.816,0.215-1.271,0.651v2.612
				c0.418,0.359,0.836,0.485,1.166,0.485C143.967,27.036,144.549,26.348,144.549,25.094z"/>
			<path fill="#FFFFFF" d="M147.229,22.49h0.912l0.088,0.582h0.028c0.468-0.389,1.05-0.719,1.642-0.719
				c1.36,0,2.119,1.078,2.119,2.719c0,1.838-1.1,2.887-2.304,2.887c-0.476,0-0.95-0.214-1.407-0.602l0.027,0.912V30h-1.105V22.49
				L147.229,22.49z M150.859,25.094c0-1.117-0.358-1.808-1.254-1.808c-0.416,0-0.814,0.215-1.271,0.651v2.612
				c0.419,0.359,0.836,0.485,1.167,0.485C150.277,27.036,150.859,26.348,150.859,25.094z"/>
			<path fill="#FFFFFF" d="M153.539,26.58v-6.489h1.107v6.548c0,0.301,0.136,0.407,0.271,0.407c0.049,0,0.087,0,0.186-0.021
				l0.146,0.847c-0.136,0.049-0.33,0.087-0.603,0.087C153.841,27.959,153.539,27.443,153.539,26.58z"/>
			<path fill="#FFFFFF" d="M156.249,25.172c0-1.74,1.185-2.818,2.438-2.818c1.418,0,2.176,1.021,2.176,2.535
				c0,0.215-0.02,0.438-0.049,0.563h-3.467c0.086,1.021,0.729,1.633,1.649,1.633c0.478,0,0.884-0.146,1.272-0.397l0.39,0.709
				c-0.495,0.33-1.107,0.563-1.808,0.563C157.404,27.959,156.249,26.93,156.249,25.172z M159.9,24.686
				c0-0.922-0.418-1.457-1.193-1.457c-0.671,0-1.264,0.516-1.371,1.457H159.9z"/>
			<path fill="#FFFFFF" d="M162.309,22.49h0.914l0.086,0.748h0.029c0.456-0.485,0.991-0.885,1.651-0.885
				c0.797,0,1.243,0.369,1.477,0.98c0.524-0.563,1.069-0.98,1.738-0.98c1.118,0,1.644,0.758,1.644,2.117v3.361h-1.119v-3.227
				c0-0.922-0.291-1.291-0.893-1.291c-0.37,0-0.759,0.244-1.205,0.729v3.788h-1.115v-3.227c0-0.922-0.283-1.291-0.896-1.291
				c-0.358,0-0.759,0.244-1.204,0.729v3.788h-1.107V22.49L162.309,22.49z"/>
			<path fill="#FFFFFF" d="M171.271,25.172c0-1.74,1.186-2.818,2.438-2.818c1.418,0,2.176,1.021,2.176,2.535
				c0,0.215-0.019,0.438-0.049,0.563h-3.468c0.088,1.021,0.729,1.633,1.651,1.633c0.477,0,0.883-0.146,1.272-0.397l0.39,0.709
				c-0.496,0.33-1.107,0.563-1.809,0.563C172.427,27.959,171.271,26.93,171.271,25.172z M174.923,24.686
				c0-0.922-0.417-1.457-1.194-1.457c-0.67,0-1.263,0.516-1.369,1.457H174.923z"/>
			<path fill="#FFFFFF" d="M177.331,22.49h0.913l0.087,0.738h0.028c0.496-0.477,1.041-0.875,1.769-0.875
				c1.138,0,1.642,0.758,1.642,2.117v3.361h-1.115v-3.227c0-0.922-0.272-1.291-0.903-1.291c-0.496,0-0.836,0.254-1.312,0.729v3.788
				h-1.107L177.331,22.49L177.331,22.49z"/>
			<path fill="#FFFFFF" d="M183.76,26.085v-2.701h-0.777v-0.835l0.826-0.059l0.125-1.477h0.943v1.477h1.389v0.894h-1.389v2.712
				c0,0.639,0.223,0.971,0.775,0.971c0.186,0,0.418-0.06,0.574-0.127l0.203,0.826c-0.301,0.098-0.66,0.193-1.049,0.193
				C184.177,27.959,183.76,27.211,183.76,26.085z"/>
			<path fill="#FFFFFF" d="M186.953,27.221l0.525-0.719c0.477,0.38,0.941,0.611,1.516,0.611c0.641,0,0.941-0.311,0.941-0.719
				c0-0.485-0.604-0.699-1.185-0.924c-0.71-0.271-1.524-0.65-1.524-1.554c0-0.896,0.719-1.563,1.894-1.563
				c0.718,0,1.302,0.291,1.739,0.631l-0.525,0.689c-0.368-0.271-0.748-0.466-1.193-0.466c-0.584,0-0.854,0.292-0.854,0.659
				c0,0.459,0.554,0.633,1.136,0.846c0.748,0.282,1.574,0.613,1.574,1.623c0,0.893-0.709,1.622-2.03,1.622
				C188.227,27.959,187.471,27.648,186.953,27.221z"/>
			<path fill="#FFFFFF" d="M194.85,20.684h4.234v0.941h-3.107v2.188h2.643v0.941h-2.643v3.079h-1.127V20.684L194.85,20.684z"/>
			<path fill="#FFFFFF" d="M200.189,25.852V22.49h1.117v3.225c0,0.924,0.262,1.282,0.895,1.282c0.494,0,0.836-0.233,1.281-0.796
				V22.49h1.117v5.343h-0.914l-0.086-0.808h-0.029c-0.484,0.563-1.012,0.934-1.748,0.934
				C200.686,27.959,200.189,27.211,200.189,25.852z"/>
			<path fill="#FFFFFF" d="M206.648,26.085v-2.701h-0.778v-0.835l0.825-0.059l0.127-1.477h0.943v1.477h1.389v0.894h-1.389v2.712
				c0,0.639,0.221,0.971,0.775,0.971c0.186,0,0.419-0.06,0.572-0.127l0.203,0.826c-0.301,0.098-0.658,0.193-1.047,0.193
				C207.064,27.959,206.648,27.211,206.648,26.085z"/>
			<path fill="#FFFFFF" d="M210.443,25.852V22.49h1.119v3.225c0,0.924,0.262,1.282,0.893,1.282c0.495,0,0.836-0.233,1.281-0.796
				V22.49h1.119v5.343h-0.914l-0.088-0.808h-0.028c-0.485,0.563-1.011,0.934-1.748,0.934
				C210.939,27.959,210.443,27.211,210.443,25.852z"/>
			<path fill="#FFFFFF" d="M216.729,22.49h0.912l0.088,0.962h0.029c0.379-0.688,0.942-1.099,1.516-1.099
				c0.264,0,0.438,0.039,0.602,0.117l-0.203,0.971c-0.186-0.059-0.32-0.088-0.533-0.088c-0.438,0-0.963,0.301-1.303,1.146v3.332
				h-1.107V22.49L216.729,22.49z"/>
			<path fill="#FFFFFF" d="M220.408,25.172c0-1.74,1.185-2.818,2.438-2.818c1.42,0,2.178,1.021,2.178,2.535
				c0,0.215-0.02,0.438-0.049,0.563h-3.47c0.088,1.021,0.729,1.633,1.652,1.633c0.476,0,0.884-0.146,1.272-0.397l0.389,0.709
				c-0.496,0.33-1.107,0.563-1.809,0.563C221.563,27.959,220.408,26.93,220.408,25.172z M224.061,24.686
				c0-0.922-0.418-1.457-1.194-1.457c-0.671,0-1.263,0.516-1.37,1.457H224.061z"/>
			<path fill="#FFFFFF" d="M228.943,20.684h4.234v0.941h-3.107v2.188h2.643v0.941h-2.643v3.079h-1.127V20.684z"/>
			<path fill="#FFFFFF" d="M233.993,25.172c0-1.788,1.194-2.818,2.516-2.818s2.517,1.03,2.517,2.818
				c0,1.768-1.194,2.787-2.517,2.787C235.188,27.959,233.993,26.938,233.993,25.172z M237.879,25.172
				c0-1.137-0.523-1.895-1.37-1.895c-0.835,0-1.358,0.758-1.358,1.895c0,1.126,0.523,1.874,1.358,1.874
				C237.354,27.046,237.879,26.298,237.879,25.172z"/>
			<path fill="#FFFFFF" d="M240.529,22.49h0.912l0.088,0.962h0.029c0.379-0.688,0.941-1.099,1.516-1.099
				c0.263,0,0.438,0.039,0.604,0.117l-0.205,0.971c-0.185-0.059-0.32-0.088-0.535-0.088c-0.437,0-0.961,0.301-1.301,1.146v3.332
				h-1.106L240.529,22.49L240.529,22.49z"/>
			<path fill="#FFFFFF" d="M244.627,25.852V22.49h1.117v3.225c0,0.924,0.263,1.282,0.895,1.282c0.494,0,0.836-0.233,1.281-0.796
				V22.49h1.117v5.343h-0.914l-0.086-0.808h-0.029c-0.484,0.563-1.01,0.934-1.749,0.934
				C245.122,27.959,244.627,27.211,244.627,25.852z"/>
			<path fill="#FFFFFF" d="M250.909,22.49h0.914l0.087,0.748h0.027c0.457-0.485,0.992-0.885,1.652-0.885
				c0.797,0,1.243,0.369,1.477,0.98c0.524-0.563,1.068-0.98,1.74-0.98c1.115,0,1.642,0.758,1.642,2.117v3.361h-1.118v-3.227
				c0-0.922-0.292-1.291-0.893-1.291c-0.371,0-0.758,0.244-1.205,0.729v3.788h-1.117v-3.227c0-0.922-0.281-1.291-0.896-1.291
				c-0.358,0-0.758,0.244-1.204,0.729v3.788h-1.106V22.49L250.909,22.49z"/>
		</g>
	</g>
	<path fill="#FFFFFF" d="M34,29.236c-6.548,0-10.406-3.574-10.406-8.529v-0.531h6.725v0.602c0,1.912,1.309,3.187,3.681,3.187
		c2.336,0,3.646-1.274,3.646-3.187c0-1.805-1.061-2.938-3.752-3.469l-2.513-0.494c-4.956-0.992-7.929-3.576-7.929-8.531
		c0-4.637,3.54-8.283,9.946-8.283c6.336,0,9.911,3.717,9.911,8.035v0.46h-6.69v-0.46c0-1.664-1.168-2.761-3.221-2.761
		c-2.124,0-3.256,1.097-3.256,2.761c0,1.805,1.133,2.726,3.858,3.292l2.478,0.495c5.238,1.062,7.893,3.858,7.893,8.672
		C44.371,25.557,40.726,29.236,34,29.236z"/>
	<path fill="#FFFFFF" d="M47.311,0.495h17.734v5.451H54.036v5.982h9.769v5.451h-9.769v11.362h-6.725V0.495z"/>
	<path fill="#FFFFFF" d="M67.808,0.495h17.733v5.451H74.533v5.982h9.769v5.451h-9.769v11.362h-6.725V0.495z"/>
	<path fill="#FFFFFF" d="M14.332,1.182c-0.374,0.362-0.561,0.809-0.561,1.34v9.097c0.324,0.338,0.586,0.711,0.786,1.122
		c0.049,0.098,0.131,0.309,0.243,0.635c0.113,0.326,0.262,0.658,0.449,0.996c0.187,0.339,0.443,0.701,0.768,1.087
		c0.449,0.555,1.247,1.063,2.395,1.521l-0.599,0.435c-0.375,0.291-0.948,0.604-1.721,0.94c-0.774,0.34-1.548,0.568-2.32,0.688v8.118
		c0,0.507,0.187,0.941,0.561,1.304c0.375,0.362,0.824,0.544,1.348,0.544h5.313V0.638h-5.313C15.155,0.638,14.707,0.819,14.332,1.182
		z"/>
	<path fill="#FFFFFF" d="M12.986,15.643c-2.839-2.833-5.361-1.206-5.361-1.206c2.816-2.206,5.187,0.131,5.187,0.131
		c0.11,0.292,0.838,0.859,1.12,1.095c1.255,1.052,2.054,1.274,2.663,1.396c-1.217-0.783-2.01-1.727-2.375-2.833
		c-0.724-2.053-1.996-3.079-3.816-3.079c-0.625,0-1.185,0.133-1.684,0.398c-0.5,0.266-0.842,0.507-1.029,0.725
		c-0.188,0.217-0.343,0.435-0.468,0.652v-10.4c0-0.531-0.187-0.978-0.56-1.34c-0.376-0.363-0.825-0.544-1.35-0.544L0,0.496v28.37
		l5.313,0.144c0.524,0,0.974-0.182,1.348-0.544c0.374-0.36,0.56-0.797,0.56-1.304V16.398c0.05,0.146,0.131,0.304,0.243,0.473
		c0.113,0.167,0.307,0.393,0.581,0.67c0.274,0.275,0.674,0.506,1.198,0.688c0.524,0.183,1.135,0.271,1.833,0.271
		c2.148,0,3.984-0.441,5.511-1.32C14.157,17.055,13.334,15.969,12.986,15.643z"/>
</g>
</svg>
